<?xml version="1.0" encoding="utf-8"?>
<!-- Generator: Adobe Illustrator 25.2.0, SVG Export Plug-In . SVG Version: 6.00 Build 0)  -->
<svg version="1.1" id="Camada_1" xmlns="http://www.w3.org/2000/svg" xmlns:xlink="http://www.w3.org/1999/xlink" x="0px" y="0px"
	 viewBox="0 0 109 103" style="enable-background:new 0 0 109 103;" xml:space="preserve">
<style type="text/css">
	.st0{fill:#231F20;}
	.st1{fill-rule:evenodd;clip-rule:evenodd;fill:#F58431;}
	.st2{fill-rule:evenodd;clip-rule:evenodd;fill:#FFFFFF;}
	.st3{fill:#F58431;}
	.st4{fill:#FFFFFF;}
</style>
<g transform="matrix(1, 0, 0, 1, -9, -6)">
	<path class="st0" d="M24.07,10.35h78.28c3.4-0.05,6.19,2.67,6.23,6.07v82.51c-0.05,3.4-2.84,6.11-6.23,6.07h-77.2
		c-3.4,0.05-6.19-2.67-6.23-6.07V15.36C18.96,12.56,21.27,10.31,24.07,10.35z"/>
</g>
<path class="st1" d="M63.21,27.41c2.82-8.03,5.22-14.29,8.84-15.21l0,0l-18.08,8.88C58.23,19.99,62.3,23.66,63.21,27.41z"/>
<path class="st1" d="M63.29,28.88c-4.41,13.03-8.64,28.48-18.81,22.66c-1.35-0.77-2.16-1.75-2.92-3.99
	c5.61-14.59,8.87-33.11,19.02-23.28C61.79,25.61,62.72,27.18,63.29,28.88z"/>
<path class="st1" d="M41.38,13.24c-2.43,7.48-3.8,25.48,0,34.2c-3.6,9.33-7.92,17.34-15.51,12.99s-6.35-29.61-3.25-38.64
	L41.38,13.24z"/>
<path class="st1" d="M86.85,50.92L68.2,59.37c-0.14-6.27-1.35-21.41-4.84-30.45c4.03-11.94,7.58-20.8,15.48-13.14
	C84.44,21.19,86.94,43.07,86.85,50.92z"/>
<path class="st1" d="M32.37,62.06c3.84-1.38,6.6-7.01,9.1-13.56c0.98,4.05,5.44,6.07,9.82,4.46L32.37,62.06z"/>
<path class="st2" d="M26.63,80.48h-1.3V69.31h1.16v0.22c-0.01,0.18,0,0.37,0.04,0.55v0.16h0.07c0.35-0.19,0.71-0.36,1.08-0.5
	c0.45-0.18,0.92-0.32,1.39-0.41c0.5-0.1,1.02-0.16,1.53-0.16c0.5-0.01,1,0.06,1.48,0.23c0.58,0.22,1.08,0.6,1.46,1.1
	c0.4,0.63,0.58,1.38,0.53,2.12v7.89h-1.3v-7.89c0.03-0.46-0.07-0.92-0.29-1.34c-0.18-0.29-0.44-0.51-0.75-0.65
	c-0.3-0.14-0.62-0.21-0.94-0.22h-0.92c-0.33,0.01-0.66,0.07-0.98,0.17c-0.38,0.11-0.74,0.22-1.07,0.35c-0.2,0.07-0.4,0.16-0.62,0.24
	l-0.62,0.27v9.1L26.63,80.48z M22.78,65.58c0.01,0.2-0.07,0.39-0.22,0.52c-0.31,0.28-0.78,0.28-1.09,0
	c-0.14-0.14-0.22-0.33-0.22-0.53c-0.01-0.2,0.06-0.4,0.21-0.54c0.15-0.14,0.35-0.21,0.55-0.2c0.19,0,0.38,0.07,0.52,0.2
	C22.7,65.17,22.79,65.37,22.78,65.58L22.78,65.58z M22.67,80.48V69.31h-1.29v11.17H22.67z"/>
<path class="st2" d="M79.85,74.49l4.73-0.32v-1.38c0.02-0.36-0.07-0.71-0.24-1.03c-0.29-0.48-0.77-0.81-1.32-0.9
	c-0.24-0.05-0.49-0.08-0.74-0.08c-0.3,0-0.6,0.03-0.89,0.09c-0.27,0.06-0.54,0.16-0.77,0.31c-0.23,0.15-0.42,0.36-0.55,0.61
	c-0.15,0.31-0.23,0.66-0.21,1.01L79.85,74.49L79.85,74.49z M86.85,76.07l-7,0.49l0,0v0.92c-0.03,0.41,0.11,0.81,0.38,1.12
	c0.31,0.28,0.7,0.46,1.12,0.51c0.58,0.08,1.16,0.05,1.73-0.08c0.69-0.15,1.35-0.39,1.97-0.71l0.44-0.23l0.95,1.78l-0.39,0.24
	c-0.47,0.28-0.96,0.51-1.48,0.67c-0.52,0.17-1.06,0.3-1.61,0.38c-0.54,0.08-1.09,0.1-1.63,0.07c-0.52-0.03-1.03-0.12-1.52-0.29
	c-0.7-0.21-1.29-0.67-1.67-1.3c-0.39-0.65-0.59-1.4-0.58-2.16v-4.71c-0.01-0.46,0.06-0.93,0.2-1.37c0.12-0.39,0.31-0.75,0.56-1.07
	c0.23-0.29,0.5-0.55,0.81-0.76c0.29-0.2,0.61-0.37,0.94-0.52l0,0c0.42-0.16,0.86-0.26,1.3-0.3c0.47-0.04,0.94-0.04,1.42,0
	c0.47,0.04,0.94,0.13,1.39,0.27c1.09,0.33,1.97,1.13,2.38,2.19c0.17,0.51,0.26,1.05,0.27,1.59v3.29L86.85,76.07z M69.51,71.38
	c0.02,0.12,0.05,0.23,0.09,0.35c0.08,0.34,0.11,0.69,0.11,1.04v8.22h-2.28v-8.22c0.02-0.42-0.05-0.83-0.22-1.21
	c-0.11-0.21-0.28-0.39-0.49-0.5c-0.19-0.1-0.41-0.15-0.62-0.15h-0.75c-0.5,0.05-1,0.16-1.47,0.35l-1.1,0.43v9.28h-2.26V68.82h2.05
	l0.07,0.82l0.49-0.22c0.42-0.18,0.85-0.32,1.3-0.42c0.47-0.11,0.95-0.17,1.43-0.17c0.53-0.01,1.06,0.09,1.57,0.27
	c0.22,0.08,0.43,0.18,0.62,0.3c0.11,0.07,0.21,0.14,0.3,0.22c0.27-0.12,0.54-0.22,0.81-0.32c0.42-0.16,0.86-0.29,1.31-0.38
	c0.47-0.1,0.95-0.14,1.43-0.13c0.52,0.01,1.02,0.12,1.5,0.31c0.73,0.25,1.36,0.72,1.8,1.35c0.47,0.68,0.71,1.49,0.69,2.32v8.19H73.6
	v-8.19c0.02-0.37-0.06-0.73-0.23-1.06c-0.14-0.23-0.34-0.41-0.58-0.54c-0.23-0.12-0.48-0.2-0.74-0.22
	c-0.25-0.03-0.49-0.04-0.74-0.04c-0.63,0.09-1.24,0.25-1.83,0.48L69.51,71.38z M57.75,65.58c0.01,0.51-0.3,0.98-0.78,1.16
	c-0.48,0.19-1.04,0.07-1.39-0.31c-0.36-0.35-0.47-0.88-0.27-1.34c0.21-0.46,0.67-0.75,1.18-0.74c0.31,0,0.61,0.11,0.84,0.32
	C57.6,64.89,57.75,65.23,57.75,65.58L57.75,65.58z M57.63,80.96h-2.29V68.82h2.28L57.63,80.96L57.63,80.96z M48.96,69.39
	c0.55-0.33,1.18-0.54,1.82-0.61c0.82-0.09,1.66-0.03,2.46,0.18l0.47,0.12l-0.56,2.08l-0.51-0.17c-0.29-0.09-0.59-0.13-0.9-0.13
	c-0.35,0-0.7,0.04-1.04,0.13c-0.3,0.09-0.6,0.21-0.87,0.37c-0.21,0.13-0.4,0.3-0.54,0.5c-0.11,0.15-0.17,0.34-0.17,0.53v8.59h-2.29
	V68.85h2.05l0.06,0.56L48.96,69.39z M42.97,73.48c0.01-0.44-0.07-0.88-0.23-1.3c-0.12-0.31-0.31-0.59-0.55-0.81
	c-0.22-0.2-0.48-0.35-0.77-0.44c-0.3-0.1-0.62-0.15-0.94-0.15c-0.32,0-0.64,0.05-0.94,0.15c-0.29,0.09-0.56,0.24-0.79,0.44
	c-0.25,0.23-0.44,0.5-0.58,0.81c-0.17,0.41-0.25,0.85-0.24,1.29v3.32c-0.06,0.66,0.19,1.3,0.68,1.75c0.54,0.39,1.2,0.59,1.87,0.56
	c0.65,0.03,1.3-0.16,1.83-0.54c0.46-0.47,0.69-1.12,0.62-1.77v-3.31L42.97,73.48z M37.85,80.57v6.94l-2.16,0.04V73.58
	c-0.01-0.58,0.06-1.15,0.19-1.71c0.11-0.45,0.29-0.89,0.53-1.3c0.22-0.35,0.49-0.66,0.81-0.92c0.3-0.24,0.63-0.45,0.98-0.61l0,0
	c1.48-0.56,3.12-0.56,4.59,0l0,0c0.35,0.16,0.68,0.36,0.97,0.61c0.31,0.26,0.58,0.58,0.79,0.93c0.23,0.4,0.4,0.84,0.51,1.3
	c0.12,0.56,0.18,1.13,0.17,1.7v3.03c0.07,1.24-0.36,2.45-1.2,3.36c-0.98,0.86-2.26,1.29-3.56,1.21c-0.59,0-1.19-0.08-1.76-0.24
	c-0.31-0.08-0.6-0.21-0.87-0.37L37.85,80.57z"/>
<path class="st1" d="M40.62,86.29l-0.67-1.65l-0.68,1.65H40.62z M38.64,87.42l1.3-3.25l1.3,3.25h-0.19l-0.36-0.95h-1.53l-0.36,0.95
	L38.64,87.42z"/>
<path class="st1" d="M39.36,86.26h1.15l-0.57-1.4L39.36,86.26z M40.72,86.39h-1.56l0.79-1.95l0.77,1.9L40.72,86.39z M41.11,87.39
	l-0.36-0.95h-1.62l-0.36,0.95h-0.03l1.2-3l1.2,3H41.11z M38.54,87.47l1.4-3.51l1.4,3.51h-0.34l-0.36-0.95h-1.43l-0.35,0.95H38.54z"
	/>
<path class="st1" d="M43.26,85.65c0.18,0,0.35-0.06,0.49-0.17c0.13-0.1,0.21-0.26,0.21-0.43c0-0.17-0.07-0.34-0.21-0.44
	c-0.14-0.11-0.31-0.17-0.49-0.17h-0.62v1.21H43.26z M43.26,84.26c0.23-0.01,0.45,0.07,0.62,0.22c0.17,0.14,0.26,0.36,0.25,0.58
	c0.03,0.27-0.12,0.53-0.36,0.65c-0.26,0.1-0.53,0.15-0.81,0.13l1.17,1.58h-0.22l-1.17-1.58h-0.11v1.58h-0.19v-3.16L43.26,84.26z"/>
<path class="st1" d="M42.71,85.59h0.55c0.16,0,0.32-0.05,0.44-0.15c0.12-0.09,0.19-0.23,0.18-0.38c0.01-0.15-0.06-0.3-0.18-0.4
	c-0.12-0.11-0.28-0.16-0.44-0.15h-0.55V85.59z M43.26,85.73h-0.7v-1.35h0.7c0.2,0,0.39,0.06,0.54,0.19c0.15,0.12,0.23,0.31,0.23,0.5
	c0,0.19-0.09,0.37-0.24,0.48C43.64,85.67,43.45,85.74,43.26,85.73L43.26,85.73z M43.96,87.36l-1.17-1.58h-0.22v1.58h-0.04v-3.03
	h0.74c0.21-0.01,0.42,0.06,0.59,0.2c0.15,0.13,0.23,0.33,0.22,0.53c0.03,0.25-0.1,0.49-0.32,0.61c-0.25,0.09-0.51,0.14-0.78,0.12
	h-0.14L44,87.36L43.96,87.36z M44.28,87.5h-0.39l-1.18-1.58v1.56h-0.32v-3.29h0.88c0.25-0.01,0.49,0.07,0.68,0.23
	c0.17,0.15,0.27,0.37,0.27,0.61c0.02,0.3-0.14,0.58-0.41,0.71c-0.23,0.09-0.47,0.14-0.71,0.13L44.28,87.5z"/>
<path class="st1" d="M45.21,84.27h1.63v0.18h-0.72v2.97h-0.19v-2.98h-0.72V84.27z"/>
<path class="st1" d="M46.01,87.36h0.07v-2.98h0.69v-0.04h-1.49v0.04h0.73L46.01,87.36z M46.19,87.49h-0.32v-2.97h-0.72V84.2h1.76
	v0.32h-0.72V87.49z"/>
<path class="st1" d="M49.55,84.27v0.18h-1.38v1.15h1.38v0.18h-1.38v1.46h1.38v0.18h-1.56v-3.15H49.55z"/>
<path class="st1" d="M48.06,87.36h1.42v-0.05H48.1v-1.59h1.38v-0.06H48.1v-1.27h1.38v-0.04h-1.42v3.03V87.36z M49.62,87.49h-1.7
	V84.2h1.7v0.32h-1.37v1.01h1.37v0.32h-1.37v1.33h1.37V87.49z"/>
<path class="st1" d="M54.53,84.92c0-0.31-0.17-0.46-0.52-0.46c-0.13,0-0.25,0.04-0.34,0.13c-0.09,0.08-0.14,0.2-0.14,0.33
	c0.02,0.16,0.09,0.32,0.19,0.44l0.16,0.23c0.14-0.08,0.28-0.17,0.41-0.27C54.42,85.23,54.51,85.08,54.53,84.92L54.53,84.92z
	 M53.82,85.82c-0.09,0-0.24,0.1-0.44,0.29c-0.17,0.13-0.29,0.33-0.33,0.54c0,0.16,0.06,0.32,0.17,0.44
	c0.11,0.12,0.26,0.19,0.42,0.19c0.33-0.04,0.65-0.17,0.9-0.39L53.82,85.82L53.82,85.82z M55.13,87.43h-0.22l-0.27-0.42
	c-0.09,0.07-0.25,0.16-0.46,0.28c-0.15,0.1-0.33,0.15-0.51,0.16c-0.21,0-0.41-0.08-0.55-0.23c-0.15-0.14-0.23-0.34-0.23-0.54
	c0-0.23,0.1-0.46,0.27-0.61c0.06-0.05,0.24-0.18,0.57-0.39l-0.24-0.38c-0.08-0.12-0.14-0.26-0.16-0.4c0-0.17,0.07-0.33,0.2-0.44
	c0.13-0.11,0.3-0.18,0.47-0.18c0.18-0.01,0.36,0.04,0.51,0.15c0.13,0.12,0.21,0.29,0.2,0.47c-0.03,0.19-0.12,0.36-0.27,0.47
	c-0.14,0.13-0.3,0.24-0.47,0.32l0.72,1.06l0.46-0.4l0.12,0.09l-0.49,0.42L55.13,87.43z"/>
<path class="st1" d="M54.01,84.53c-0.11,0-0.21,0.03-0.29,0.11c-0.08,0.07-0.12,0.17-0.12,0.28c0.02,0.15,0.08,0.29,0.18,0.41
	l0.12,0.18c0.12-0.07,0.23-0.14,0.34-0.23c0.12-0.08,0.2-0.2,0.22-0.35C54.47,84.66,54.32,84.53,54.01,84.53z M53.86,85.65
	l-0.04-0.05l-0.16-0.23c-0.11-0.14-0.18-0.3-0.2-0.48c-0.01-0.14,0.05-0.28,0.16-0.38c0.11-0.1,0.25-0.15,0.39-0.15
	c0.49,0,0.62,0.28,0.62,0.53c-0.02,0.18-0.12,0.34-0.27,0.44c-0.13,0.11-0.27,0.2-0.42,0.28h-0.06L53.86,85.65z M53.79,85.86
	c-0.13,0.07-0.26,0.16-0.36,0.27c-0.16,0.12-0.27,0.3-0.31,0.49c0,0.15,0.06,0.29,0.16,0.4c0.09,0.11,0.23,0.17,0.37,0.17
	c0.3-0.04,0.58-0.15,0.81-0.34L53.79,85.86z M53.41,85.96l-0.07,0.07c-0.19,0.15-0.32,0.37-0.35,0.61c0,0.18,0.07,0.36,0.19,0.49
	c0.3,0.33,0.75,0.28,1.42-0.19l0.05-0.04l-0.79-1.15h-0.09l0.06-0.04l-0.04-0.06c-0.06-0.08-0.14-0.2-0.24-0.37
	c-0.08-0.1-0.13-0.23-0.15-0.36c0-0.15,0.06-0.3,0.18-0.4c0.12-0.1,0.27-0.16,0.42-0.16c0.16-0.01,0.33,0.04,0.46,0.13
	c0.12,0.1,0.19,0.26,0.17,0.42c-0.02,0.17-0.11,0.32-0.25,0.42c-0.13,0.13-0.29,0.23-0.46,0.31l-0.07,0.03l0.81,1.21l0.48-0.41l0,0
	l-0.47,0.41L55,87.36h-0.05l-0.29-0.45l-0.06,0.04l-0.46,0.28c-0.3,0.22-0.71,0.19-0.98-0.06c-0.14-0.13-0.21-0.31-0.21-0.5
	c0-0.21,0.09-0.41,0.26-0.55l0.2-0.15L53.41,85.96z M53.67,87.5c-0.47-0.01-0.84-0.38-0.86-0.84c0-0.25,0.11-0.48,0.3-0.64
	c0.06-0.05,0.22-0.16,0.52-0.36c-0.08-0.1-0.14-0.21-0.21-0.33c-0.09-0.12-0.15-0.27-0.17-0.42c-0.01-0.19,0.08-0.37,0.22-0.49
	c0.14-0.13,0.33-0.2,0.52-0.19c0.2-0.01,0.39,0.05,0.55,0.16c0.15,0.13,0.24,0.32,0.22,0.52c-0.03,0.21-0.13,0.39-0.29,0.52
	c-0.13,0.12-0.27,0.22-0.42,0.3l0.62,0.93l0.45-0.38l0.23,0.17l-0.51,0.44l0.4,0.58h-0.39l-0.25-0.39l-0.4,0.25
	c-0.16,0.11-0.35,0.18-0.54,0.19V87.5z"/>
<g transform="matrix(1, 0, 0, 1, -9, -6)">
	<rect x="67.78" y="90.26" class="st3" width="0.19" height="3.16"/>
</g>
<path class="st1" d="M58.86,87.36h0.04v-3.03h-0.04V87.36z M59.04,87.49h-0.32V84.2h0.32V87.49z"/>
<path class="st1" d="M60.29,87.42l0.85-3.23l1.1,2.8l1.13-2.79l0.83,3.23h-0.19l-0.7-2.63l-1.07,2.69l-1.07-2.69l-0.69,2.63
	L60.29,87.42z"/>
<path class="st1" d="M63.32,84.57l0.74,2.79h0.04l-0.76-2.92l-1.11,2.75l-1.08-2.76l-0.78,2.94h0.05l0.73-2.79l1.08,2.72l1.08-2.72
	L63.32,84.57z M62.23,87.68l-1.06-2.63l-0.62,2.47h-0.34l0.94-3.52l1.1,2.83L63.39,84l0.91,3.52h-0.33l-0.68-2.47L62.23,87.68z"/>
<path class="st1" d="M66.21,85.65c0.18,0,0.35-0.06,0.49-0.18c0.13-0.1,0.21-0.27,0.21-0.44c0.01-0.17-0.06-0.34-0.19-0.44
	c-0.14-0.11-0.32-0.17-0.51-0.16h-0.62v1.21H66.21z M66.21,84.26c0.23-0.01,0.45,0.06,0.62,0.21c0.17,0.14,0.26,0.36,0.25,0.58
	c0.03,0.33-0.19,0.64-0.52,0.72c-0.32,0.07-0.65,0.09-0.97,0.08v1.58h-0.18v-3.16L66.21,84.26z"/>
<path class="st1" d="M65.67,85.59h0.54c0.16,0.01,0.32-0.05,0.45-0.15c0.12-0.1,0.18-0.24,0.18-0.39c0.01-0.15-0.05-0.3-0.17-0.4
	c-0.13-0.1-0.29-0.15-0.46-0.14h-0.54L65.67,85.59z M66.21,85.73h-0.68v-1.35h0.68c0.2-0.01,0.39,0.06,0.55,0.18
	c0.27,0.23,0.31,0.63,0.08,0.91c-0.03,0.03-0.05,0.06-0.08,0.08c-0.15,0.12-0.34,0.19-0.54,0.19L66.21,85.73z M65.48,87.35v-3.03
	h0.72c0.22-0.02,0.45,0.05,0.62,0.19c0.15,0.13,0.24,0.32,0.22,0.52c0.03,0.31-0.17,0.59-0.47,0.66c-0.31,0.06-0.63,0.09-0.95,0.07
	h-0.08v1.58L65.48,87.35z M65.67,87.49h-0.32V84.2h0.86c0.25-0.01,0.49,0.07,0.69,0.22c0.18,0.15,0.28,0.37,0.27,0.61
	c0.03,0.36-0.21,0.7-0.56,0.78c-0.3,0.07-0.62,0.09-0.93,0.08L65.67,87.49z"/>
<path class="st1" d="M69.04,85.65c0.17,0,0.34-0.06,0.48-0.17c0.14-0.1,0.22-0.26,0.21-0.43c0-0.17-0.07-0.34-0.21-0.44
	c-0.14-0.11-0.31-0.18-0.49-0.17h-0.62v1.21H69.04z M69.04,84.26c0.23-0.01,0.45,0.07,0.62,0.22c0.17,0.14,0.26,0.36,0.25,0.58
	c0.02,0.27-0.12,0.53-0.37,0.65c-0.26,0.1-0.53,0.15-0.81,0.13l1.17,1.58h-0.21l-1.16-1.57h-0.12v1.58h-0.19v-3.16L69.04,84.26z"/>
<path class="st1" d="M68.48,85.59h0.56c0.16,0,0.31-0.05,0.44-0.15c0.12-0.09,0.19-0.23,0.19-0.38c0-0.15-0.06-0.3-0.18-0.4
	c-0.13-0.1-0.29-0.16-0.45-0.15h-0.55L68.48,85.59z M69.04,85.73h-0.7v-1.35h0.69c0.2,0,0.39,0.06,0.54,0.19
	c0.26,0.24,0.28,0.64,0.04,0.9c-0.02,0.02-0.04,0.04-0.06,0.06c-0.15,0.12-0.34,0.19-0.53,0.19L69.04,85.73z M69.73,87.36
	l-1.17-1.58h-0.22v1.58h-0.04v-3.03h0.74c0.21-0.01,0.42,0.06,0.58,0.2c0.15,0.13,0.24,0.33,0.22,0.53c0.03,0.25-0.1,0.49-0.32,0.61
	c-0.25,0.09-0.51,0.14-0.78,0.12H68.6l1.18,1.58L69.73,87.36z M70.05,87.5h-0.39l-1.18-1.58v1.56h-0.32v-3.29h0.89
	c0.25-0.01,0.48,0.07,0.67,0.23c0.17,0.15,0.27,0.37,0.27,0.61c0.02,0.3-0.14,0.58-0.41,0.71c-0.22,0.09-0.46,0.14-0.7,0.13
	L70.05,87.5z"/>
<path class="st1" d="M72.61,84.27v0.18h-1.37v1.15h1.37v0.18h-1.37v1.46h1.37v0.18h-1.55v-3.15H72.61z"/>
<path class="st1" d="M71.12,87.36h1.42v-0.05h-1.38v-1.59h1.38v-0.06h-1.38v-1.27h1.38v-0.04h-1.42v3.03V87.36z M72.68,87.49h-1.71
	V84.2h1.71v0.32h-1.38v1.01h1.38v0.32h-1.38v1.33h1.38V87.49z"/>
<path class="st1" d="M75.52,84.71l-0.19,0.07c-0.11-0.21-0.32-0.34-0.56-0.34c-0.17-0.01-0.33,0.05-0.46,0.16
	c-0.13,0.1-0.2,0.25-0.19,0.41c0,0.15,0.16,0.32,0.48,0.51l0.69,0.38c0.24,0.14,0.4,0.39,0.42,0.67c0.01,0.24-0.07,0.48-0.24,0.66
	c-0.18,0.18-0.44,0.27-0.69,0.26c-0.22,0.01-0.43-0.05-0.62-0.16c-0.19-0.11-0.33-0.3-0.39-0.51l0.19-0.06
	c0.02,0.18,0.14,0.34,0.31,0.41c0.16,0.09,0.34,0.14,0.53,0.15c0.2,0.04,0.41-0.02,0.55-0.17c0.14-0.14,0.21-0.34,0.17-0.54
	c-0.01-0.26-0.17-0.5-0.41-0.61l-0.76-0.42c-0.24-0.11-0.4-0.34-0.41-0.61c-0.01-0.2,0.07-0.39,0.22-0.52
	c0.17-0.13,0.37-0.2,0.59-0.19C75.06,84.22,75.38,84.4,75.52,84.71L75.52,84.71z"/>
<path class="st1" d="M73.83,86.82c0.06,0.17,0.18,0.32,0.34,0.41c0.19,0.11,0.41,0.16,0.62,0.15c0.23,0.01,0.45-0.06,0.62-0.21
	c0.15-0.17,0.22-0.38,0.21-0.61c-0.02-0.25-0.16-0.48-0.39-0.61l-0.68-0.37c-0.34-0.22-0.51-0.4-0.51-0.57
	c0-0.18,0.08-0.35,0.22-0.46c0.14-0.12,0.32-0.18,0.51-0.18c0.25-0.02,0.5,0.11,0.62,0.33h0.06c-0.13-0.24-0.39-0.37-0.66-0.36
	c-0.2-0.01-0.39,0.06-0.54,0.18c-0.15,0.11-0.23,0.29-0.23,0.48c0.01,0.23,0.16,0.44,0.38,0.53c0.34,0.19,0.59,0.33,0.76,0.41
	c0.26,0.12,0.43,0.37,0.44,0.65c0.03,0.21-0.05,0.43-0.21,0.58c-0.16,0.15-0.38,0.23-0.6,0.2c-0.2,0-0.39-0.06-0.56-0.15
	c-0.16-0.07-0.28-0.21-0.34-0.38h-0.04L73.83,86.82z M74.77,87.52c-0.24,0-0.47-0.05-0.67-0.17c-0.2-0.12-0.35-0.32-0.42-0.55v-0.07
	l0.34-0.12v0.1c0,0.13,0.09,0.25,0.27,0.35c0.15,0.09,0.32,0.13,0.49,0.13c0.45,0,0.62-0.2,0.62-0.61
	c-0.01-0.23-0.16-0.44-0.37-0.53l-0.76-0.42c-0.25-0.12-0.42-0.36-0.44-0.64c-0.01-0.24,0.09-0.46,0.28-0.61
	c0.18-0.14,0.4-0.21,0.62-0.21c0.35-0.02,0.68,0.18,0.82,0.5v0.07l-0.32,0.12v-0.05c-0.09-0.2-0.29-0.32-0.51-0.31
	c-0.15,0-0.3,0.04-0.42,0.14c-0.11,0.09-0.17,0.22-0.17,0.36c0,0.08,0.08,0.22,0.45,0.46l0.68,0.37c0.27,0.15,0.44,0.42,0.46,0.73
	c0.01,0.26-0.08,0.52-0.26,0.71C75.28,87.44,75.02,87.53,74.77,87.52L74.77,87.52z"/>
<path class="st1" d="M78.51,84.71l-0.19,0.07c-0.11-0.22-0.33-0.35-0.57-0.35c-0.17-0.01-0.33,0.05-0.46,0.16
	c-0.13,0.1-0.2,0.25-0.19,0.41c0,0.15,0.16,0.32,0.48,0.51l0.69,0.38c0.24,0.14,0.4,0.39,0.42,0.67c0.01,0.24-0.07,0.48-0.24,0.66
	c-0.18,0.17-0.43,0.25-0.68,0.24c-0.22,0.01-0.43-0.05-0.62-0.16c-0.19-0.11-0.33-0.3-0.39-0.51l0.19-0.06
	c0.02,0.18,0.14,0.34,0.31,0.41c0.16,0.09,0.34,0.14,0.53,0.15c0.2,0.04,0.41-0.02,0.55-0.17c0.14-0.14,0.21-0.34,0.17-0.54
	c-0.01-0.26-0.17-0.5-0.41-0.61l-0.76-0.42c-0.24-0.11-0.4-0.34-0.41-0.61c0-0.21,0.09-0.41,0.26-0.53c0.17-0.13,0.37-0.2,0.59-0.19
	C78.09,84.2,78.39,84.4,78.51,84.71z"/>
<path class="st1" d="M76.85,86.82c0.06,0.17,0.18,0.32,0.34,0.41c0.19,0.11,0.41,0.16,0.62,0.15c0.23,0.01,0.45-0.06,0.62-0.21
	c0.15-0.17,0.22-0.38,0.21-0.61c-0.02-0.25-0.16-0.48-0.39-0.61l-0.68-0.37c-0.34-0.22-0.51-0.4-0.51-0.57
	c0-0.18,0.08-0.35,0.22-0.46c0.14-0.12,0.32-0.18,0.51-0.18c0.25-0.02,0.5,0.11,0.62,0.33h0.06c-0.13-0.24-0.39-0.37-0.66-0.36
	c-0.19-0.01-0.39,0.06-0.54,0.18c-0.15,0.11-0.23,0.29-0.23,0.48c0.01,0.23,0.16,0.44,0.37,0.53c0.34,0.19,0.59,0.33,0.76,0.41
	c0.26,0.12,0.43,0.37,0.44,0.65c0.03,0.21-0.05,0.43-0.21,0.58c-0.16,0.15-0.38,0.23-0.6,0.2c-0.2,0-0.39-0.06-0.56-0.15
	c-0.16-0.07-0.28-0.21-0.33-0.38h-0.04L76.85,86.82z M77.78,87.52c-0.24,0-0.47-0.05-0.67-0.17c-0.2-0.12-0.35-0.32-0.41-0.55v-0.07
	l0.34-0.12v0.1c0,0.13,0.09,0.25,0.27,0.35c0.15,0.09,0.32,0.13,0.49,0.13c0.45,0,0.66-0.2,0.66-0.61
	c-0.01-0.23-0.16-0.44-0.38-0.53l-0.76-0.42c-0.25-0.12-0.42-0.36-0.44-0.64c-0.01-0.24,0.09-0.46,0.28-0.61
	c0.18-0.14,0.4-0.21,0.62-0.21c0.35-0.02,0.68,0.18,0.82,0.5v0.07l-0.32,0.12v-0.05c-0.09-0.2-0.29-0.32-0.51-0.31
	c-0.15,0-0.3,0.04-0.42,0.14c-0.11,0.09-0.17,0.22-0.17,0.36c0,0.08,0.08,0.22,0.45,0.46l0.69,0.37c0.26,0.15,0.43,0.43,0.45,0.73
	c0.01,0.26-0.08,0.52-0.26,0.71C78.32,87.45,78.05,87.54,77.78,87.52L77.78,87.52z"/>
<path class="st1" d="M81.83,86.29l-0.67-1.65l-0.68,1.65H81.83z M81.51,83.96c0.14,0,0.27-0.08,0.34-0.21
	c0.08-0.12,0.11-0.25,0.11-0.39c0-0.04,0-0.05,0.06-0.05s0.04,0,0.04,0.05c0,0.16-0.04,0.32-0.12,0.46
	c-0.08,0.15-0.24,0.24-0.41,0.24c-0.11-0.01-0.22-0.07-0.28-0.17c0,0-0.11-0.13-0.23-0.3c-0.13-0.17-0.14-0.17-0.18-0.17
	c-0.11,0-0.2,0.05-0.27,0.13c-0.08,0.16-0.15,0.33-0.2,0.5c-0.01,0-0.03,0-0.04-0.01c-0.01-0.01-0.01-0.02-0.01-0.04
	c0-0.16,0.04-0.32,0.12-0.46c0.08-0.14,0.22-0.23,0.39-0.23c0.11,0,0.24,0.1,0.39,0.32S81.47,83.96,81.51,83.96L81.51,83.96z
	 M79.86,87.42l1.3-3.25l1.3,3.25h-0.21l-0.35-0.95h-1.52l-0.36,0.95H79.86z"/>
<path class="st1" d="M81.52,84.13c-0.13-0.01-0.26-0.08-0.34-0.19l-0.23-0.31c-0.09-0.13-0.12-0.14-0.13-0.14
	c-0.08,0-0.16,0.04-0.21,0.11c-0.08,0.15-0.15,0.32-0.19,0.49v0.04h-0.05c-0.03,0-0.06-0.01-0.09-0.03
	c-0.02-0.02-0.03-0.05-0.03-0.08c0-0.17,0.04-0.34,0.12-0.49c0.09-0.17,0.26-0.27,0.45-0.27c0.13,0,0.28,0.11,0.45,0.35
	c0.07,0.11,0.15,0.2,0.25,0.29c0.11-0.01,0.21-0.08,0.26-0.18c0.07-0.11,0.1-0.23,0.1-0.36c0-0.03,0.01-0.07,0.04-0.09
	c0.03-0.02,0.06-0.03,0.09-0.03c0.03,0,0.06,0.01,0.08,0.04c0.02,0.02,0.03,0.05,0.03,0.08c0,0.17-0.04,0.35-0.13,0.5
	c-0.1,0.17-0.27,0.27-0.47,0.27L81.52,84.13z M80.58,86.26h1.15l-0.57-1.4L80.58,86.26z M81.93,86.39h-1.55l0.79-1.9l0.77,1.9H81.93
	z M82.32,87.39l-0.35-0.95h-1.59l-0.36,0.95h-0.03l1.2-3l1.2,3H82.32z M79.75,87.47h0.34l0.36-0.95h1.42l0.37,0.95h0.34l-1.41-3.51
	L79.75,87.47z"/>
<path class="st1" d="M83.66,85.85c-0.01,0.39,0.13,0.76,0.41,1.04c0.28,0.27,0.66,0.42,1.05,0.4c0.39,0.02,0.78-0.13,1.06-0.4
	c0.27-0.28,0.42-0.65,0.41-1.04c0.01-0.38-0.14-0.76-0.41-1.03c-0.6-0.54-1.51-0.54-2.11,0C83.8,85.09,83.65,85.47,83.66,85.85
	L83.66,85.85z M86.78,85.85c0.02,0.43-0.15,0.86-0.46,1.16c-0.68,0.61-1.71,0.61-2.39,0c-0.61-0.66-0.61-1.67,0-2.33
	c0.32-0.31,0.75-0.47,1.2-0.45c0.44-0.02,0.88,0.14,1.2,0.45C86.63,84.99,86.79,85.41,86.78,85.85L86.78,85.85z"/>
<path class="st1" d="M85.12,84.48c-0.37-0.02-0.74,0.12-1,0.38c-0.52,0.57-0.52,1.43,0,2c0.27,0.26,0.63,0.4,1,0.38
	c0.37,0.01,0.73-0.12,1-0.38c0.52-0.56,0.52-1.42,0-1.97c-0.27-0.26-0.63-0.4-1-0.38V84.48z M85.12,87.35
	c-0.41,0.02-0.81-0.13-1.1-0.42c-0.57-0.61-0.57-1.55,0-2.17c0.63-0.56,1.58-0.56,2.21,0c0.29,0.28,0.44,0.67,0.43,1.07
	c0.01,0.4-0.14,0.79-0.42,1.08C85.94,87.21,85.54,87.36,85.12,87.35L85.12,87.35z M85.12,84.32c0.42-0.02,0.83,0.14,1.14,0.43
	c0.58,0.63,0.58,1.61,0,2.24c-0.66,0.57-1.63,0.57-2.29,0c-0.58-0.63-0.58-1.61,0-2.24C84.28,84.45,84.7,84.3,85.12,84.32
	L85.12,84.32z M85.12,87.55c-0.46,0.02-0.91-0.15-1.25-0.47c-0.63-0.69-0.63-1.74,0-2.43c0.33-0.32,0.78-0.49,1.25-0.47
	c0.46-0.02,0.91,0.15,1.25,0.47c0.32,0.32,0.49,0.76,0.48,1.21c0.02,0.45-0.16,0.89-0.48,1.21c-0.34,0.32-0.79,0.48-1.25,0.46V87.55
	z"/>
<path class="st4" d="M89.82,96.78h-70.1c-4.23,0.06-7.71-3.33-7.77-7.56V14.13c0.06-4.23,3.54-7.62,7.77-7.56h70.1
	c4.23-0.05,7.71,3.33,7.77,7.56v75.1C97.52,93.45,94.05,96.83,89.82,96.78z M19.72,7.3c-3.82-0.04-6.96,3.01-7.01,6.83v75.1
	c0.06,3.82,3.2,6.87,7.01,6.83h70.1c3.82,0.04,6.96-3.01,7.01-6.83v-75.1c-0.06-3.82-3.2-6.87-7.01-6.83H19.72z"/>
</svg>
